<mxfile host="app.diagrams.net" modified="2021-12-08T15:14:09.649Z" agent="5.0 (X11; Linux x86_64) AppleWebKit/537.36 (KHTML, like Gecko) Chrome/96.0.4664.45 Safari/537.36" etag="76qNDycxuXh8UcX2vPS9" version="15.9.4" type="github">
  <diagram id="3X96dTat4gi4P8eFne31" name="Page-1">
    <mxGraphModel dx="868" dy="1540" grid="1" gridSize="10" guides="1" tooltips="1" connect="1" arrows="1" fold="1" page="1" pageScale="1" pageWidth="827" pageHeight="1169" math="0" shadow="0">
      <root>
        <mxCell id="0" />
        <mxCell id="1" parent="0" />
        <mxCell id="UVwHgLHZ5KE1Eq6juh8P-7" value="Hayvanlar" style="swimlane;fontStyle=1;align=center;verticalAlign=top;childLayout=stackLayout;horizontal=1;startSize=26;horizontalStack=0;resizeParent=1;resizeParentMax=0;resizeLast=0;collapsible=1;marginBottom=0;" vertex="1" parent="1">
          <mxGeometry x="334" y="-90" width="160" height="120" as="geometry" />
        </mxCell>
        <mxCell id="UVwHgLHZ5KE1Eq6juh8P-9" value="" style="line;strokeWidth=1;fillColor=none;align=left;verticalAlign=middle;spacingTop=-1;spacingLeft=3;spacingRight=3;rotatable=0;labelPosition=right;points=[];portConstraint=eastwest;" vertex="1" parent="UVwHgLHZ5KE1Eq6juh8P-7">
          <mxGeometry y="26" width="160" height="8" as="geometry" />
        </mxCell>
        <mxCell id="UVwHgLHZ5KE1Eq6juh8P-10" value="+ life():Â &#xa;+ solunum()&#xa;+yemekYeme()&#xa;+getFeedSchedule()&#xa;+getDosage()" style="text;strokeColor=none;fillColor=none;align=left;verticalAlign=top;spacingLeft=4;spacingRight=4;overflow=hidden;rotatable=0;points=[[0,0.5],[1,0.5]];portConstraint=eastwest;" vertex="1" parent="UVwHgLHZ5KE1Eq6juh8P-7">
          <mxGeometry y="34" width="160" height="86" as="geometry" />
        </mxCell>
        <mxCell id="UVwHgLHZ5KE1Eq6juh8P-11" value="Kedigiller" style="swimlane;fontStyle=1;align=center;verticalAlign=top;childLayout=stackLayout;horizontal=1;startSize=26;horizontalStack=0;resizeParent=1;resizeParentMax=0;resizeLast=0;collapsible=1;marginBottom=0;" vertex="1" parent="1">
          <mxGeometry x="120" y="60" width="160" height="190" as="geometry" />
        </mxCell>
        <mxCell id="UVwHgLHZ5KE1Eq6juh8P-12" value="+ turAdi(): String&#xa;+agirlik(): int&#xa;+hacim(): int&#xa;+yas(): int" style="text;strokeColor=none;fillColor=none;align=left;verticalAlign=top;spacingLeft=4;spacingRight=4;overflow=hidden;rotatable=0;points=[[0,0.5],[1,0.5]];portConstraint=eastwest;" vertex="1" parent="UVwHgLHZ5KE1Eq6juh8P-11">
          <mxGeometry y="26" width="160" height="94" as="geometry" />
        </mxCell>
        <mxCell id="UVwHgLHZ5KE1Eq6juh8P-13" value="" style="line;strokeWidth=1;fillColor=none;align=left;verticalAlign=middle;spacingTop=-1;spacingLeft=3;spacingRight=3;rotatable=0;labelPosition=right;points=[];portConstraint=eastwest;" vertex="1" parent="UVwHgLHZ5KE1Eq6juh8P-11">
          <mxGeometry y="120" width="160" height="8" as="geometry" />
        </mxCell>
        <mxCell id="UVwHgLHZ5KE1Eq6juh8P-14" value="+life()&#xa;+getDosage()&#xa;+getFeedSchedule ()" style="text;strokeColor=none;fillColor=none;align=left;verticalAlign=top;spacingLeft=4;spacingRight=4;overflow=hidden;rotatable=0;points=[[0,0.5],[1,0.5]];portConstraint=eastwest;" vertex="1" parent="UVwHgLHZ5KE1Eq6juh8P-11">
          <mxGeometry y="128" width="160" height="62" as="geometry" />
        </mxCell>
        <mxCell id="UVwHgLHZ5KE1Eq6juh8P-15" value="Kemirgenler" style="swimlane;fontStyle=1;align=center;verticalAlign=top;childLayout=stackLayout;horizontal=1;startSize=26;horizontalStack=0;resizeParent=1;resizeParentMax=0;resizeLast=0;collapsible=1;marginBottom=0;" vertex="1" parent="1">
          <mxGeometry x="334" y="60" width="160" height="190" as="geometry" />
        </mxCell>
        <mxCell id="UVwHgLHZ5KE1Eq6juh8P-16" value="+ turAdi(): String&#xa;+ agirlik(): int&#xa;+hacim(): int&#xa;+yas():int" style="text;strokeColor=none;fillColor=none;align=left;verticalAlign=top;spacingLeft=4;spacingRight=4;overflow=hidden;rotatable=0;points=[[0,0.5],[1,0.5]];portConstraint=eastwest;" vertex="1" parent="UVwHgLHZ5KE1Eq6juh8P-15">
          <mxGeometry y="26" width="160" height="94" as="geometry" />
        </mxCell>
        <mxCell id="UVwHgLHZ5KE1Eq6juh8P-17" value="" style="line;strokeWidth=1;fillColor=none;align=left;verticalAlign=middle;spacingTop=-1;spacingLeft=3;spacingRight=3;rotatable=0;labelPosition=right;points=[];portConstraint=eastwest;" vertex="1" parent="UVwHgLHZ5KE1Eq6juh8P-15">
          <mxGeometry y="120" width="160" height="8" as="geometry" />
        </mxCell>
        <mxCell id="UVwHgLHZ5KE1Eq6juh8P-18" value="+life()&#xa;+getDosage()&#xa;+getFeedSchedule ()" style="text;strokeColor=none;fillColor=none;align=left;verticalAlign=top;spacingLeft=4;spacingRight=4;overflow=hidden;rotatable=0;points=[[0,0.5],[1,0.5]];portConstraint=eastwest;" vertex="1" parent="UVwHgLHZ5KE1Eq6juh8P-15">
          <mxGeometry y="128" width="160" height="62" as="geometry" />
        </mxCell>
        <mxCell id="UVwHgLHZ5KE1Eq6juh8P-19" value="Atlar" style="swimlane;fontStyle=1;align=center;verticalAlign=top;childLayout=stackLayout;horizontal=1;startSize=26;horizontalStack=0;resizeParent=1;resizeParentMax=0;resizeLast=0;collapsible=1;marginBottom=0;" vertex="1" parent="1">
          <mxGeometry x="550" y="60" width="160" height="190" as="geometry" />
        </mxCell>
        <mxCell id="UVwHgLHZ5KE1Eq6juh8P-20" value="+ turAdi(): String&#xa;+ agirlik(): int&#xa;+hacim(): int&#xa;+yas():int" style="text;strokeColor=none;fillColor=none;align=left;verticalAlign=top;spacingLeft=4;spacingRight=4;overflow=hidden;rotatable=0;points=[[0,0.5],[1,0.5]];portConstraint=eastwest;" vertex="1" parent="UVwHgLHZ5KE1Eq6juh8P-19">
          <mxGeometry y="26" width="160" height="94" as="geometry" />
        </mxCell>
        <mxCell id="UVwHgLHZ5KE1Eq6juh8P-21" value="" style="line;strokeWidth=1;fillColor=none;align=left;verticalAlign=middle;spacingTop=-1;spacingLeft=3;spacingRight=3;rotatable=0;labelPosition=right;points=[];portConstraint=eastwest;" vertex="1" parent="UVwHgLHZ5KE1Eq6juh8P-19">
          <mxGeometry y="120" width="160" height="8" as="geometry" />
        </mxCell>
        <mxCell id="UVwHgLHZ5KE1Eq6juh8P-22" value="+life()&#xa;+getDosage()&#xa;+getFeedSchedule ()" style="text;strokeColor=none;fillColor=none;align=left;verticalAlign=top;spacingLeft=4;spacingRight=4;overflow=hidden;rotatable=0;points=[[0,0.5],[1,0.5]];portConstraint=eastwest;" vertex="1" parent="UVwHgLHZ5KE1Eq6juh8P-19">
          <mxGeometry y="128" width="160" height="62" as="geometry" />
        </mxCell>
        <mxCell id="UVwHgLHZ5KE1Eq6juh8P-26" value="" style="endArrow=block;endFill=0;html=1;edgeStyle=orthogonalEdgeStyle;align=left;verticalAlign=top;rounded=1;exitX=0.5;exitY=0;exitDx=0;exitDy=0;entryX=0;entryY=0.5;entryDx=0;entryDy=0;" edge="1" parent="1" source="UVwHgLHZ5KE1Eq6juh8P-11" target="UVwHgLHZ5KE1Eq6juh8P-10">
          <mxGeometry x="-1" relative="1" as="geometry">
            <mxPoint x="200" y="50" as="sourcePoint" />
            <mxPoint x="360" y="50" as="targetPoint" />
          </mxGeometry>
        </mxCell>
        <mxCell id="UVwHgLHZ5KE1Eq6juh8P-28" value="" style="endArrow=block;endFill=0;html=1;edgeStyle=orthogonalEdgeStyle;align=left;verticalAlign=top;rounded=0;exitX=0.5;exitY=0;exitDx=0;exitDy=0;" edge="1" parent="1" source="UVwHgLHZ5KE1Eq6juh8P-15">
          <mxGeometry x="-1" relative="1" as="geometry">
            <mxPoint x="210" y="70" as="sourcePoint" />
            <mxPoint x="414" y="30" as="targetPoint" />
          </mxGeometry>
        </mxCell>
        <mxCell id="UVwHgLHZ5KE1Eq6juh8P-30" value="" style="endArrow=block;endFill=0;html=1;edgeStyle=orthogonalEdgeStyle;align=left;verticalAlign=top;rounded=1;exitX=0.5;exitY=0;exitDx=0;exitDy=0;entryX=1;entryY=0.5;entryDx=0;entryDy=0;strokeColor=default;" edge="1" parent="1" source="UVwHgLHZ5KE1Eq6juh8P-19" target="UVwHgLHZ5KE1Eq6juh8P-10">
          <mxGeometry x="-1" relative="1" as="geometry">
            <mxPoint x="210" y="70" as="sourcePoint" />
            <mxPoint x="344" y="-3" as="targetPoint" />
          </mxGeometry>
        </mxCell>
        <mxCell id="UVwHgLHZ5KE1Eq6juh8P-32" value="&lt;p style=&quot;margin: 0px ; margin-top: 4px ; text-align: center&quot;&gt;&lt;i&gt;&amp;lt;&amp;lt;Interface&amp;gt;&amp;gt;&lt;/i&gt;&lt;br&gt;&lt;b&gt;Feed&lt;/b&gt;&lt;/p&gt;&lt;p style=&quot;margin: 0px ; margin-left: 4px&quot;&gt;&lt;br&gt;&lt;/p&gt;&lt;hr size=&quot;1&quot;&gt;&lt;p style=&quot;margin: 0px ; margin-left: 4px&quot;&gt;+ getDosage():&lt;br&gt;+ getFeedSchedule():&lt;/p&gt;" style="verticalAlign=top;align=left;overflow=fill;fontSize=12;fontFamily=Helvetica;html=1;" vertex="1" parent="1">
          <mxGeometry x="640" y="-100" width="180" height="130" as="geometry" />
        </mxCell>
        <mxCell id="UVwHgLHZ5KE1Eq6juh8P-33" value="" style="endArrow=block;endFill=0;html=1;edgeStyle=orthogonalEdgeStyle;align=left;verticalAlign=top;rounded=1;entryX=0.5;entryY=1;entryDx=0;entryDy=0;strokeColor=default;dashed=1;" edge="1" parent="1" target="UVwHgLHZ5KE1Eq6juh8P-32">
          <mxGeometry x="-1" relative="1" as="geometry">
            <mxPoint x="640" y="60" as="sourcePoint" />
            <mxPoint x="504" y="-3" as="targetPoint" />
          </mxGeometry>
        </mxCell>
        <mxCell id="UVwHgLHZ5KE1Eq6juh8P-34" value="" style="endArrow=block;endFill=0;html=1;edgeStyle=orthogonalEdgeStyle;align=left;verticalAlign=top;rounded=1;entryX=0.611;entryY=1;entryDx=0;entryDy=0;strokeColor=default;dashed=1;entryPerimeter=0;exitX=0.5;exitY=0;exitDx=0;exitDy=0;" edge="1" parent="1" source="UVwHgLHZ5KE1Eq6juh8P-15" target="UVwHgLHZ5KE1Eq6juh8P-32">
          <mxGeometry x="-1" relative="1" as="geometry">
            <mxPoint x="650" y="70" as="sourcePoint" />
            <mxPoint x="740" y="40" as="targetPoint" />
          </mxGeometry>
        </mxCell>
        <mxCell id="UVwHgLHZ5KE1Eq6juh8P-35" value="" style="endArrow=block;endFill=0;html=1;edgeStyle=orthogonalEdgeStyle;align=left;verticalAlign=top;rounded=1;entryX=0.75;entryY=1;entryDx=0;entryDy=0;strokeColor=default;dashed=1;exitX=0.5;exitY=0;exitDx=0;exitDy=0;" edge="1" parent="1" source="UVwHgLHZ5KE1Eq6juh8P-11" target="UVwHgLHZ5KE1Eq6juh8P-32">
          <mxGeometry x="-1" relative="1" as="geometry">
            <mxPoint x="660" y="80" as="sourcePoint" />
            <mxPoint x="750" y="50" as="targetPoint" />
          </mxGeometry>
        </mxCell>
      </root>
    </mxGraphModel>
  </diagram>
</mxfile>
